<svg version="1.1" xmlns="http://www.w3.org/2000/svg" style="display: block;" viewBox="0 0 2048 2048" width="1024" height="1024" preserveAspectRatio="none">
<path transform="translate(0,0)" fill="rgb(29,125,185)" d="M 879.641 631.894 C 963.04 550.317 908.182 488.289 905.04 396.239 C 902.78 330.047 958.723 248.123 1005.43 205.272 C 1037.97 175.422 1053.85 203.727 1049.79 237.857 C 1047.56 255.436 1055.58 285.963 1061.61 302.99 C 1085.44 370.198 1152.65 403.543 1202.22 451.12 C 1244.62 491.449 1278.46 539.912 1301.71 593.614 C 1313.42 620.353 1321.23 649.657 1326.93 678.235 C 1329.71 692.423 1331.91 706.721 1333.51 721.091 C 1335.33 736.46 1335.34 779.075 1345.69 788.898 C 1346.31 792.181 1347.39 793.594 1350.15 795.378 C 1360.66 796.328 1370.28 775.042 1373.46 766.704 C 1369.93 761.217 1370.33 762.438 1370.05 755.614 C 1372.36 746.552 1374.88 738.371 1380.94 731.083 L 1382.68 730.458 C 1388.37 717.443 1391.88 671.807 1415.75 686.247 C 1431.13 695.551 1445.13 717.038 1456.02 731.426 C 1509.54 805.735 1552.27 889.931 1577.43 978.143 C 1616.8 1116.17 1612.22 1283.02 1540.68 1410.24 C 1495.13 1492.33 1424.5 1557.69 1339.12 1596.74 C 1323.73 1603.64 1311.18 1608.95 1295.44 1614.67 C 1284.2 1618.76 1264.79 1625.21 1254.4 1630.39 C 1228.08 1639.63 1221.56 1657.45 1201.23 1675.22 C 1183.19 1691 1162.45 1703.75 1140.69 1713.34 C 1052.28 1751.33 937.98 1745.72 859.221 1687.92 C 838.043 1672.38 827.067 1655.79 808.939 1638.81 C 801.109 1631.48 777.957 1622.42 767.189 1618.08 C 759.167 1616.45 752.15 1610.35 744.853 1607.89 C 731.568 1603.41 718.948 1598.23 706.148 1592.51 C 701.876 1590.6 690.791 1587.67 687.448 1585.3 C 673.407 1575.37 658.689 1566.86 644.692 1556.86 C 635.642 1550.3 622.548 1546.39 615.114 1540.83 C 562.914 1501.81 517.115 1444.96 488.237 1386.7 C 469.04 1347.97 455.41 1296.86 449.625 1254.62 C 426.312 1084.39 487.886 922.526 595.445 792.177 C 628.012 752.708 666.002 718.129 699.286 679.199 C 714.429 661.488 723.744 653.251 735.775 631.106 C 749.861 605.18 760.536 577.372 758.872 547.213 C 758.857 538.216 751.866 518.106 756.25 509.602 C 762.859 496.78 780.397 494.582 791.717 500.851 C 827.405 520.614 856.023 556.931 870.785 594.587 C 875.729 607.198 875.164 620.582 879.641 631.894 z"/>
<path transform="translate(0,0)" fill="rgb(244,231,213)" d="M 1380.94 731.083 C 1382.44 732.645 1382.67 732.211 1382.39 734.25 C 1381.19 742.89 1376.75 758.595 1373.46 766.704 C 1369.93 761.217 1370.33 762.438 1370.05 755.614 C 1372.36 746.552 1374.88 738.371 1380.94 731.083 z"/>
<path transform="translate(0,0)" fill="rgb(67,198,235)" d="M 1013.71 242.661 C 1017.16 246.701 1016.22 266.555 1018.7 275.877 C 1027.97 310.691 1036.04 338.121 1059.03 367.009 C 1080.75 394.079 1110.82 418.547 1138.22 439.993 C 1220.52 504.387 1270.86 579.992 1292.22 681.971 C 1295.38 696.485 1297.88 711.138 1299.7 725.883 C 1303.26 756.322 1301.89 823.552 1344.42 827.475 C 1385.11 831.229 1406.12 784.86 1412.49 752.057 C 1413.27 748.066 1414.61 741.443 1417.73 738.849 C 1425.13 745.719 1458.28 795.183 1464.24 805.091 C 1537 926.696 1577.34 1066.29 1564.42 1208.12 C 1551.93 1345.21 1486.25 1469.78 1366.28 1541.67 C 1355.97 1547.85 1344.45 1555.37 1333.61 1560.49 C 1317.97 1567.93 1301.98 1574.64 1285.72 1580.59 C 1264.76 1588.07 1246.67 1592.34 1226.76 1603.41 C 1205.31 1615.34 1198.27 1627.98 1182.6 1645.17 C 1175.29 1653.19 1156.46 1666.51 1146.79 1672.02 C 1120.98 1686.74 1084.3 1698.21 1054.61 1701.9 C 1040.26 1703.69 1021.13 1702.77 1006.63 1702.08 C 993.379 1701.45 982.693 1701.11 969.816 1697.68 C 917.873 1686.41 880.258 1666.81 846.948 1625.38 C 839.748 1616.42 824.64 1605.22 814.784 1599.36 C 793.529 1586.71 767.465 1581.79 744.558 1572.67 C 685.601 1548.73 634.438 1513.76 589.722 1468.21 C 430.102 1305.61 459.422 1042.46 581.343 867.276 C 595.212 848.795 608.429 830.307 622.684 812.066 C 672.041 748.905 743.095 699.073 776.336 624.348 C 789.178 595.479 791.969 571.847 792.458 540.905 C 827.779 574.07 847.545 603.938 844.795 654.265 C 843.009 686.962 859.241 690.15 883.589 671.791 C 943.665 626.489 972.154 559.212 954.814 484.859 C 946.613 449.696 935.727 412.121 940.842 375.863 C 947.179 336.147 969.456 299.568 993.007 267.677 C 998.2 260.646 1006.98 247.644 1013.71 242.661 z"/>
<path transform="translate(0,0)" fill="rgb(15,58,98)" d="M 788.023 1124.44 C 870.77 1126.9 881.882 1254.33 819.019 1291.33 C 808.895 1297.28 800.571 1299.22 789.098 1301.04 C 690.654 1302.58 692.22 1129.91 788.023 1124.44 z"/>
<path transform="translate(0,0)" fill="rgb(229,226,215)" d="M 778.88 1166.09 C 804.556 1164.09 801.949 1192.29 787.25 1203.06 C 766.737 1204.46 760.619 1177.33 778.88 1166.09 z"/>
<path transform="translate(0,0)" fill="rgb(15,58,98)" d="M 1242.6 1128.23 C 1312.2 1121.55 1337.71 1207.31 1311.98 1259.73 C 1300.06 1284.03 1284.87 1292.93 1260.21 1301.39 C 1245.19 1303.65 1225.44 1299.14 1212.84 1290.44 C 1172.64 1262.68 1169.88 1196.4 1195.66 1158.25 C 1207.19 1141.19 1222.87 1131.97 1242.6 1128.23 z"/>
<path transform="translate(0,0)" fill="rgb(229,226,215)" d="M 1234.16 1171.05 C 1258.54 1169.21 1256.2 1194.13 1242.38 1207.83 C 1222.73 1209.34 1216.45 1181.52 1234.16 1171.05 z"/>
<path transform="translate(0,0)" fill="rgb(15,58,98)" d="M 1090.43 1266 C 1099.88 1267.83 1108.29 1274.71 1106.14 1285.17 C 1097.61 1326.09 1045.39 1344.49 1008.08 1340.42 C 980.391 1337.39 959.803 1326.92 942.397 1305.5 C 936.834 1295.53 929.165 1275.46 943.395 1266.85 C 946.993 1264.67 957.167 1268.1 959.442 1271.59 C 962.923 1276.94 966.319 1283.88 970.283 1289.08 C 985.867 1308.69 1011.42 1314.87 1035.39 1310.42 C 1051.81 1307.23 1066.34 1296.1 1075.24 1282.16 C 1080.54 1273.86 1080.71 1269.15 1090.43 1266 z"/>
<path transform="translate(0,0)" fill="rgb(229,226,215)" d="M 979.312 1779.21 C 984.294 1781.01 1036.98 1779.5 1045.04 1779.53 C 1050.23 1779.56 1065.51 1780.97 1070.59 1780.89 C 1075.38 1781.21 1080.83 1781.44 1085.54 1781.95 C 1119.59 1779.51 1282.38 1791.72 1302.32 1815.57 C 1305.73 1831.46 1231.92 1836.97 1218.41 1840.18 C 1175.55 1850.36 1110.71 1850.19 1068.36 1852.08 C 1026.43 1853.96 738.411 1847.33 728.667 1817.11 C 730.118 1808.96 744.612 1804.11 751.756 1802.18 C 765.32 1798.53 779.607 1798.85 793.465 1796.72 C 812.826 1793.75 832.067 1789.95 851.584 1788.11 C 875.071 1785.85 898.773 1785.36 922.323 1783.8 C 930.817 1783.23 938.545 1781.61 946.965 1781.27 C 956.697 1780.17 969.037 1780.07 979.312 1779.21 z"/>
<path transform="translate(0,0)" fill="rgb(244,231,213)" d="M 979.312 1779.21 C 984.294 1781.01 1036.98 1779.5 1045.04 1779.53 C 1050.23 1779.56 1065.51 1780.97 1070.59 1780.89 C 1075.38 1781.21 1080.83 1781.44 1085.54 1781.95 C 1075.22 1784.91 1005.33 1784.19 991 1783.26 L 992.883 1783.04 C 978.101 1781.9 964.358 1782.32 949.58 1782.87 C 948.708 1782.34 947.836 1781.8 946.965 1781.27 C 956.697 1780.17 969.037 1780.07 979.312 1779.21 z"/>
<path transform="translate(0,0)" fill="rgb(244,231,213)" fill-opacity="0.172549" d="M 979.312 1779.21 C 977.794 1757.49 1041.52 1766.76 1055.42 1768.41 L 1054.75 1769.36 L 1054.92 1771.13 C 1059.47 1774.69 1061.68 1771.39 1065.86 1774.94 C 1066.61 1778.75 1061.14 1779.22 1070.59 1780.89 C 1065.51 1780.97 1050.23 1779.56 1045.04 1779.53 C 1036.98 1779.5 984.294 1781.01 979.312 1779.21 z"/>
<path transform="translate(0,0)" fill="rgb(229,226,215)" fill-opacity="0.976471" d="M 1345.69 788.898 C 1359.46 784.221 1366.85 769.034 1370.05 755.614 C 1370.33 762.438 1369.93 761.217 1373.46 766.704 C 1370.28 775.042 1360.66 796.328 1350.15 795.378 C 1347.39 793.594 1346.31 792.181 1345.69 788.898 z"/>
</svg>