<?xml version="1.0" encoding="UTF-8"?>
<svg version="1.1" xmlns="http://www.w3.org/2000/svg" width="1536" height="1024">
<path d="M0 0 C506.88 0 1013.76 0 1536 0 C1536 337.92 1536 675.84 1536 1024 C1029.12 1024 522.24 1024 0 1024 C0 686.08 0 348.16 0 0 Z " fill="#153153" transform="translate(0,0)"/>
<path d="M0 0 C1.65 0 3.3 0 5 0 C7.43794103 5.5265918 9.8730989 11.05439924 12.3059082 16.58325195 C13.13037727 18.45596769 13.95554897 20.32837427 14.78149414 22.20043945 C19.1940585 32.20314614 23.57540546 42.21039593 27.66725159 52.34947205 C29.53765522 56.96654999 31.56811467 61.4920779 33.6875 66 C34.12116127 66.92406898 34.12116127 66.92406898 34.56358337 67.86680603 C35.80848526 70.50830671 37.06921429 73.14001516 38.36328125 75.7578125 C38.73839844 76.53898438 39.11351562 77.32015625 39.5 78.125 C39.8196875 78.76695312 40.139375 79.40890625 40.46875 80.0703125 C41 82 41 82 40 87 C33.565 87.495 33.565 87.495 27 88 C32.03347901 98.67575893 37.12762204 109.31436948 42.4453125 119.8515625 C42.82621536 120.60746674 43.20711823 121.36337097 43.5995636 122.1421814 C45.50352812 125.91845934 47.41461439 129.69089665 49.33569336 133.45849609 C50.04823536 134.86805235 50.76056567 136.27771564 51.47265625 137.6875 C51.79932281 138.32217194 52.12598938 138.95684387 52.46255493 139.61074829 C54.51409587 143.69087046 55.8728613 147.60017014 57 152 C55 154 55 154 51.5234375 154.1953125 C50.14049032 154.18201493 48.75761346 154.15816232 47.375 154.125 C46.66859375 154.11597656 45.9621875 154.10695313 45.234375 154.09765625 C43.48943902 154.07407603 41.74467705 154.03820461 40 154 C44.18506406 162.56579346 48.47067237 170.96436991 53.359375 179.15625 C55.53004176 182.91873906 57.41233646 186.79693831 59.30859375 190.703125 C60.614345 193.24828449 61.9679013 195.70519896 63.41015625 198.171875 C63.8273291 198.88891602 64.24450195 199.60595703 64.67431641 200.34472656 C65.5032996 201.75915711 66.34252819 203.16764273 67.19287109 204.56933594 C70.06516457 209.48243733 70.06516457 209.48243733 69.72875977 212.15429688 C69 214 69 214 67 215 C65.2433077 215.09072287 63.4831499 215.11754144 61.72412109 215.11352539 C60.07263565 215.11341209 60.07263565 215.11341209 58.38778687 215.11329651 C57.19505157 215.10813522 56.00231628 215.10297394 54.7734375 215.09765625 C53.55548492 215.0962413 52.33753235 215.09482635 51.08267212 215.09336853 C47.1800901 215.08775639 43.27756477 215.07520179 39.375 215.0625 C36.73437583 215.05748657 34.09375076 215.05292339 31.453125 215.04882812 C24.96871041 215.0386325 18.48441891 215.01905936 12 215 C12 228.53 12 242.06 12 256 C20.56691563 253.14447235 20.56691563 253.14447235 29.13354492 250.28808594 C36.41686435 247.85911688 43.701519 245.43424709 50.98828125 243.015625 C74.01163754 235.371164 96.98598866 227.61504883 119.8125 219.3984375 C120.96524918 218.98378738 122.11799835 218.56913727 123.30567932 218.141922 C129.10444936 216.05527153 134.90130955 213.96356195 140.69506836 211.86303711 C153.54715432 207.21809309 166.44574899 202.83448789 179.49714661 198.78302002 C183.11036388 197.65262162 186.7127432 196.48918971 190.3157959 195.32687378 C193.89657759 194.17282778 197.4849973 193.04386299 201.07470703 191.91796875 C203.05588802 191.29626615 205.03600452 190.67116294 207.01513672 190.04296875 C245.4951753 177.89583505 285.21107836 170.69938342 325.3125 166.625 C326.53626846 166.49635559 326.53626846 166.49635559 327.78475952 166.3651123 C341.6316666 164.93462713 354.96836751 165 369 165 C369 265.98 369 366.96 369 471 C-137.88 471 -644.76 471 -1167 471 C-1167 382.89 -1167 294.78 -1167 204 C-1161.29832668 201.46592297 -1155.8684136 199.14680414 -1149.984375 197.23046875 C-1148.89115433 196.86813896 -1148.89115433 196.86813896 -1147.77584839 196.49848938 C-1145.43530658 195.72381834 -1143.09272287 194.95554702 -1140.75 194.1875 C-1139.10972356 193.64625658 -1137.46958786 193.10458648 -1135.82958984 192.5625 C-1132.62561145 191.50383047 -1129.42095692 190.44724714 -1126.21582031 189.39208984 C-1122.10706659 188.03775652 -1118.00709688 186.65846627 -1113.90942383 185.27099609 C-1069.63285496 170.32759495 -1024.62999992 156.53381089 -978.16796875 150.421875 C-976.09295167 150.1455472 -974.01983932 149.85441916 -971.94921875 149.546875 C-954.11351663 146.91797863 -936.37276512 146.70991636 -918.375 146.6875 C-917.22383698 146.68391479 -916.07267395 146.68032959 -914.8866272 146.67663574 C-890.74430056 146.63623413 -866.9212196 148.0169492 -843.125 152.1875 C-842.23345215 152.34028412 -841.3419043 152.49306824 -840.42333984 152.65048218 C-824.42570747 155.39843629 -808.66367737 158.70982703 -793 163 C-792.3615918 163.17404358 -791.72318359 163.34808716 -791.06542969 163.52740479 C-758.71939743 172.36893067 -727.15157039 183.62265244 -696 196 C-695.22396423 196.30808594 -694.44792847 196.61617187 -693.64837646 196.93359375 C-673.69094361 204.85992282 -653.76454704 212.8632626 -633.86740112 220.93969727 C-631.5584946 221.87662535 -629.24915573 222.8124802 -626.93969727 223.74804688 C-625.43764194 224.35671946 -623.93560711 224.96544263 -622.43359375 225.57421875 C-621.70747391 225.86851776 -620.98135406 226.16281677 -620.23323059 226.46603394 C-615.80725698 228.26167926 -611.38847793 230.07402304 -606.97265625 231.89453125 C-570.7974306 246.71420315 -533.94936133 260.37056931 -496.26123047 270.81298828 C-492.65225904 271.8134593 -489.05343485 272.84616117 -485.45654297 273.88912964 C-469.00652171 278.65552421 -452.46535185 282.99129702 -435.80084229 286.94528198 C-433.91516805 287.39291507 -432.0303328 287.84409965 -430.14642334 288.29910278 C-415.88736328 291.7275395 -404.47555646 292.66406608 -389.9375 290.125 C-380.6836018 288.60612309 -371.47695307 287.45583344 -362.125 286.75 C-360.56833618 286.63035889 -360.56833618 286.63035889 -358.98022461 286.50830078 C-351.94115418 286.01792712 -345.08906095 286 -338 286 C-338 269.17 -338 252.34 -338 235 C-342.23585938 235.02320313 -346.47171875 235.04640625 -350.8359375 235.0703125 C-354.20838299 235.08316978 -357.58082158 235.09401702 -360.95327759 235.10350037 C-364.51610208 235.11407217 -368.07883179 235.12820497 -371.64160156 235.15087891 C-375.727223 235.17671832 -379.81274369 235.18646444 -383.8984375 235.1953125 C-385.17866791 235.20563507 -386.45889832 235.21595764 -387.77792358 235.22659302 C-389.54953354 235.22681961 -389.54953354 235.22681961 -391.35693359 235.22705078 C-392.92246475 235.23371262 -392.92246475 235.23371262 -394.5196228 235.24050903 C-397 235 -397 235 -399 233 C-398.84321298 227.80643 -395.58593393 223.45508686 -393 219.125 C-392.5037915 218.28219482 -392.00758301 217.43938965 -391.49633789 216.57104492 C-390.00489544 214.04292929 -388.50345261 211.5209869 -387 209 C-386.20680444 207.66029051 -385.41381619 206.32045824 -384.62109375 204.98046875 C-381.55739577 199.82333403 -378.44806833 194.69862184 -375.25390625 189.62109375 C-374.56566772 188.52704224 -374.56566772 188.52704224 -373.86352539 187.41088867 C-372.97412582 186.00138543 -372.08153026 184.5938923 -371.18530273 183.1887207 C-369.47055197 180.47808619 -368.01865493 178.05596479 -367 175 C-368.05960938 175.01160156 -369.11921875 175.02320313 -370.2109375 175.03515625 C-371.59895658 175.04453476 -372.98697755 175.05363489 -374.375 175.0625 C-375.07367187 175.07087891 -375.77234375 175.07925781 -376.4921875 175.08789062 C-381.7734375 175.11328125 -381.7734375 175.11328125 -384 174 C-383.44925707 169.02036597 -381.79460733 165.07566335 -379.5 160.6875 C-379.14615234 159.99527344 -378.79230469 159.30304688 -378.42773438 158.58984375 C-375.46733293 152.82457859 -372.42036488 147.10406361 -369.37280273 141.38452148 C-366.70665171 136.37053997 -364.10775313 131.32641814 -361.5625 126.25 C-361.2325 125.59451172 -360.9025 124.93902344 -360.5625 124.26367188 C-358.87451535 120.87710853 -357.40902533 117.52256333 -356 114 C-359.63 113.67 -363.26 113.34 -367 113 C-368.1199104 107.40044799 -367.09273064 105.10060505 -364.72265625 100.24609375 C-364.36478027 99.48445923 -364.0069043 98.72282471 -363.63818359 97.93811035 C-362.8630067 96.29187636 -362.08169244 94.64852135 -361.29495239 93.00778198 C-359.20179361 88.64249506 -357.15153247 84.25704233 -355.09375 79.875 C-354.67062027 78.9774852 -354.24749054 78.0799704 -353.8115387 77.15525818 C-349.41634075 67.81353679 -345.22500861 58.38468708 -341.0625 48.9375 C-340.06781812 46.68027683 -339.07296748 44.42313221 -338.07666016 42.16662598 C-337.48941169 40.83593097 -336.90358632 39.50460647 -336.31958008 38.17248535 C-334.65254692 34.39072349 -332.87586695 30.68246571 -331 27 C-329.35 27 -327.7 27 -326 27 C-324.88303209 29.53856342 -323.76607605 32.07713205 -322.64916992 34.61572266 C-321.65864281 36.86678527 -320.6679139 39.1177591 -319.67700195 41.36865234 C-317.21758834 46.95601296 -314.76038074 52.54429479 -312.3125 58.13671875 C-311.66293335 59.61845581 -311.66293335 59.61845581 -311.00024414 61.13012695 C-310.12048711 63.13719027 -309.24208267 65.14484699 -308.36499023 67.15307617 C-306.01474412 72.51039659 -303.62116933 77.84391809 -301.15510559 83.14877319 C-299.83739617 85.98336916 -298.5286694 88.82208566 -297.21939087 91.6605835 C-296.57740813 93.04430741 -295.93047361 94.42574557 -295.27841187 95.80474854 C-294.36619342 97.73424139 -293.47076088 99.67076232 -292.578125 101.609375 C-292.05637695 102.72280273 -291.53462891 103.83623047 -290.99707031 104.98339844 C-290 108 -290 108 -291 113 C-294.96 113 -298.92 113 -303 113 C-302.53706543 113.92586914 -302.07413086 114.85173828 -301.59716797 115.80566406 C-293.06477865 132.87044271 -284.53238932 149.93522135 -276 167 C-275.63196259 167.67419983 -275.26392517 168.34839966 -274.88473511 169.04302979 C-274 171 -274 171 -274 174 C-277.46712111 175.15570704 -280.5414956 175.32835293 -284.1875 175.5625 C-285.45980469 175.64628906 -286.73210938 175.73007812 -288.04296875 175.81640625 C-289.01878906 175.87699219 -289.99460937 175.93757812 -291 176 C-285.71266494 185.58037039 -280.37597301 195.12948895 -274.9375 204.625 C-274.43669922 205.50099854 -273.93589844 206.37699707 -273.41992188 207.27954102 C-271.03432443 211.45162211 -268.64238305 215.61980441 -266.23828125 219.78125 C-265.40860605 221.22902451 -264.57916478 222.67693311 -263.75 224.125 C-263.36706787 224.78193848 -262.98413574 225.43887695 -262.58959961 226.11572266 C-260.96497003 228.96633705 -260 230.66044259 -260 234 C-262.61521785 235.30760893 -264.53113401 235.11997548 -267.45947266 235.11352539 C-269.17102036 235.11341209 -269.17102036 235.11341209 -270.91714478 235.11329651 C-272.15362762 235.10813522 -273.39011047 235.10297394 -274.6640625 235.09765625 C-275.92640717 235.0962413 -277.18875183 235.09482635 -278.48934937 235.09336853 C-281.84638299 235.08871078 -285.203349 235.07972408 -288.56036377 235.06866455 C-291.98554896 235.0584377 -295.41074133 235.05381342 -298.8359375 235.04882812 C-305.55732985 235.03863184 -312.27860348 235.01905878 -319 235 C-319 251.83 -319 268.66 -319 286 C-313.9675 285.9175 -308.935 285.835 -303.75 285.75 C-275.32427186 285.6025984 -247.53327445 289.76088743 -219.5859375 294.6328125 C-218.90918472 294.75066101 -218.23243195 294.86850952 -217.53517151 294.9899292 C-213.92137354 295.62916584 -210.34442258 296.36218905 -206.765625 297.171875 C-200.99085655 298.35404409 -195.24502302 298.21698622 -189.375 298.125 C-183.744375 298.063125 -183.744375 298.063125 -178 298 C-178 283.15 -178 268.3 -178 253 C-194.17 253 -210.34 253 -227 253 C-228.1438152 248.42473922 -227.85457659 248.03560061 -225.60546875 244.17578125 C-225.06631836 243.23702148 -224.52716797 242.29826172 -223.97167969 241.33105469 C-223.38290039 240.33493164 -222.79412109 239.33880859 -222.1875 238.3125 C-221.30239746 236.78157715 -221.30239746 236.78157715 -220.39941406 235.21972656 C-218.6133459 232.13820474 -216.80999992 229.06751581 -215 226 C-214.47680176 225.1116748 -213.95360352 224.22334961 -213.41455078 223.30810547 C-212.92841309 222.4832666 -212.44227539 221.65842773 -211.94140625 220.80859375 C-211.48419189 220.03281982 -211.02697754 219.2570459 -210.5559082 218.45776367 C-209.70339174 217.01650243 -208.84664102 215.57773503 -207.98510742 214.1418457 C-206.37607015 211.44563027 -204.99653097 208.9895929 -204 206 C-205.37285156 206.01740234 -205.37285156 206.01740234 -206.7734375 206.03515625 C-207.96195313 206.04417969 -209.15046875 206.05320312 -210.375 206.0625 C-211.55835938 206.07410156 -212.74171875 206.08570313 -213.9609375 206.09765625 C-217 206 -217 206 -219 205 C-218.37827669 200.42902019 -216.52782067 196.67573441 -214.4375 192.625 C-213.90286133 191.5721582 -213.90286133 191.5721582 -213.35742188 190.49804688 C-210.64585386 185.18451728 -207.8411072 179.92213234 -205.01489258 174.66894531 C-202.47879427 169.94022421 -200.02995324 165.17169245 -197.625 160.375 C-197.29113281 159.71177734 -196.95726562 159.04855469 -196.61328125 158.36523438 C-194.91696655 154.96213389 -193.34875928 151.55581991 -192 148 C-195.3 148 -198.6 148 -202 148 C-204 144 -204 144 -202.99633789 140.96435547 C-202.4210856 139.75755404 -201.82845649 138.5589471 -201.22265625 137.3671875 C-200.90502319 136.70969513 -200.58739014 136.05220276 -200.26013184 135.37478638 C-199.56940529 133.9484007 -198.871648 132.52540328 -198.16775513 131.10546875 C-196.28816936 127.312356 -194.45961537 123.49469813 -192.625 119.6796875 C-192.05357018 118.49653961 -192.05357018 118.49653961 -191.47059631 117.28948975 C-187.29802516 108.61592451 -183.41591516 99.81892086 -179.5625 91 C-178.91219974 89.51415622 -178.26189072 88.02831628 -177.61157227 86.54248047 C-176.48400519 83.96561674 -175.35932089 81.38756694 -174.23657227 78.80859375 C-173.52424468 77.19070301 -172.79056702 75.58113403 -172 74 C-169.72265625 74.1015625 -169.72265625 74.1015625 -167 75 C-165.5218969 77.15516968 -164.49976649 79.0192987 -163.4375 81.375 C-163.1065332 82.07052979 -162.77556641 82.76605957 -162.43457031 83.48266602 C-158.7182531 91.38530527 -155.23488318 99.40281517 -151.73339844 107.40234375 C-149.11062589 113.36877757 -146.41028224 119.27538154 -143.52734375 125.12109375 C-142.96821289 126.25619385 -142.40908203 127.39129395 -141.83300781 128.56079102 C-140.75723707 130.72749545 -139.6697979 132.88845576 -138.56933594 135.04272461 C-138.08625977 136.01604736 -137.60318359 136.98937012 -137.10546875 137.9921875 C-136.67387451 138.84151855 -136.24228027 139.69084961 -135.79760742 140.56591797 C-134.85399414 143.44557038 -135.16925965 145.12339697 -136 148 C-138.97 148.33 -141.94 148.66 -145 149 C-138.48005803 162.89664629 -131.6977765 176.61649122 -124.53125 190.19140625 C-124.09063232 191.02857178 -123.65001465 191.8657373 -123.19604492 192.72827148 C-122.18112705 194.65597321 -121.16315957 196.58206886 -120.14453125 198.5078125 C-119 201 -119 201 -119.1875 203.3125 C-120 205 -120 205 -122 206 C-124.0374763 206.22858114 -126.08040303 206.41024278 -128.125 206.5625 C-129.22070312 206.64628906 -130.31640625 206.73007812 -131.4453125 206.81640625 C-132.28835938 206.87699219 -133.13140625 206.93757812 -134 207 C-133.5875 207.73935791 -133.175 208.47871582 -132.75 209.24047852 C-129.10768132 215.7725665 -125.47611184 222.31037374 -121.85731506 228.85551453 C-119.97908933 232.24818168 -118.07882613 235.62672327 -116.15234375 238.9921875 C-115.4137646 240.30712438 -114.6754503 241.6222101 -113.9375 242.9375 C-112.99197266 244.59072266 -112.99197266 244.59072266 -112.02734375 246.27734375 C-111.68832031 247.17582031 -111.34929687 248.07429687 -111 249 C-111.66 250.32 -112.32 251.64 -113 253 C-128.51 253 -144.02 253 -160 253 C-160 267.19 -160 281.38 -160 296 C-154.72 295.01 -149.44 294.02 -144 293 C-140.83378847 292.48189266 -137.67203893 291.97533841 -134.5 291.5 C-126.7208159 290.29703339 -118.97985858 288.94836777 -111.25488281 287.43457031 C-108.83682105 286.96855148 -106.41485884 286.52733707 -103.9921875 286.0859375 C-75.49157625 280.76552323 -47.28290045 273.28910538 -19.42675781 265.28588867 C-18.35780273 264.98142822 -17.28884766 264.67696777 -16.1875 264.36328125 C-15.27355469 264.09813721 -14.35960937 263.83299316 -13.41796875 263.55981445 C-11 263 -11 263 -7 263 C-7 247.16 -7 231.32 -7 215 C-26.14 215 -45.28 215 -65 215 C-65.66 213.68 -66.32 212.36 -67 211 C-66.14819336 208.58422852 -66.14819336 208.58422852 -64.58984375 205.87890625 C-64.01814453 204.87102051 -63.44644531 203.86313477 -62.85742188 202.82470703 C-62.22384766 201.74817871 -61.59027344 200.67165039 -60.9375 199.5625 C-60.30005859 198.45245605 -59.66261719 197.34241211 -59.00585938 196.19873047 C-54.28730837 188.03908416 -49.37505327 180.00191322 -44.36425781 172.01904297 C-40.66270558 166.11991086 -37.22612831 160.17573134 -34 154 C-39.61 153.67 -45.22 153.34 -51 153 C-50.20713993 149.03569967 -49.42498944 146.39668725 -47.77734375 142.82421875 C-47.32544678 141.83977783 -46.8735498 140.85533691 -46.40795898 139.84106445 C-45.92270752 138.80038818 -45.43745605 137.75971191 -44.9375 136.6875 C-44.43871338 135.60879639 -43.93992676 134.53009277 -43.42602539 133.41870117 C-40.39014748 126.88607714 -37.27176883 120.40443394 -34.00756836 113.9831543 C-29.48838735 105.07849585 -25.26843244 96.02668501 -21 87 C-25.62 87 -30.24 87 -35 87 C-36.27694519 81.89221923 -34.59788866 79.50515991 -32.3125 75.0625 C-27.4927923 65.3298751 -23.34170174 55.36927906 -19.2512207 45.31665039 C-16.70288153 39.06708065 -14.07031355 32.88475158 -11.24560547 26.75537109 C-8.94127238 21.65801647 -6.82422779 16.48179848 -4.6875 11.3125 C-4.0059082 9.66991211 -4.0059082 9.66991211 -3.31054688 7.99414062 C-2.20537978 5.33010627 -1.10189147 2.66539047 0 0 Z " fill="#0E2038" transform="translate(1167,553)"/>
<path d="M0 0 C1.15116302 -0.00358521 2.30232605 -0.00717041 3.4883728 -0.01086426 C27.63069944 -0.05126587 51.4537804 1.3294492 75.25 5.5 C76.14154785 5.65278412 77.0330957 5.80556824 77.95166016 5.96298218 C93.94929253 8.71093629 109.71132263 12.02232703 125.375 16.3125 C126.0134082 16.48654358 126.65181641 16.66058716 127.30957031 16.83990479 C159.65560257 25.68143067 191.22342961 36.93515244 222.375 49.3125 C223.15103577 49.62058594 223.92707153 49.92867187 224.72662354 50.24609375 C244.68405639 58.17242282 264.61045296 66.1757626 284.50759888 74.25219727 C286.8165054 75.18912535 289.12584427 76.1249802 291.43530273 77.06054688 C292.93735806 77.66921946 294.43939289 78.27794263 295.94140625 78.88671875 C296.66752609 79.18101776 297.39364594 79.47531677 298.14176941 79.77853394 C302.56774302 81.57417926 306.98652207 83.38652304 311.40234375 85.20703125 C347.5775694 100.02670315 384.42563867 113.68306931 422.11376953 124.12548828 C425.72272369 125.12595451 429.32153565 126.1586315 432.918396 127.2016449 C450.39315495 132.26469592 467.96564188 136.75844064 485.6875 140.875 C487.09470306 141.20227585 487.09470306 141.20227585 488.53033447 141.53616333 C491.20275421 142.15516 493.87637563 142.76855184 496.55078125 143.37890625 C497.34087082 143.56070435 498.13096039 143.74250244 498.94499207 143.92980957 C503.40887861 144.9372131 507.83575241 145.72879117 512.375 146.3125 C512.375 146.6425 512.375 146.9725 512.375 147.3125 C511.66601562 147.39886719 510.95703125 147.48523438 510.2265625 147.57421875 C459.83300051 154.22421664 410.40969053 168.67189945 361.73739624 182.88470459 C348.69553882 186.69018294 335.63496469 190.33295864 322.375 193.3125 C320.64443359 193.70888672 320.64443359 193.70888672 318.87890625 194.11328125 C287.7447748 200.06479923 257.48778025 190.35385126 228.375 180.3125 C227.66952026 180.06935059 226.96404053 179.82620117 226.23718262 179.57568359 C223.31496177 178.56798719 220.39318852 177.55899813 217.47154236 176.54963684 C215.25195453 175.78282176 213.03224596 175.01635719 210.8125 174.25 C209.71018539 173.86912735 209.71018539 173.86912735 208.58560181 173.4805603 C125.12060631 144.6857384 39.80665301 132.52576902 -207.22265625 189.9609375 C-211.03657588 191.47599627 -214.87431358 192.83660837 -218.75 194.1875 C-228.77318544 197.71679065 -238.69477 201.52955524 -248.625 205.3125 C-248.625 156.4725 -248.625 107.6325 -248.625 57.3125 C-242.92332668 54.77842297 -237.4934136 52.45930414 -231.609375 50.54296875 C-230.88056122 50.30141556 -230.15174744 50.05986237 -229.40084839 49.81098938 C-227.06030658 49.03631834 -224.71772287 48.26804702 -222.375 47.5 C-220.73472356 46.95875658 -219.09458786 46.41708648 -217.45458984 45.875 C-214.25061145 44.81633047 -211.04595692 43.75974714 -207.84082031 42.70458984 C-203.73206659 41.35025652 -199.63209688 39.97096627 -195.53442383 38.58349609 C-151.25785496 23.64009495 -106.25499992 9.84631089 -59.79296875 3.734375 C-57.71795167 3.4580472 -55.64483932 3.16691916 -53.57421875 2.859375 C-35.73851663 0.23047863 -17.99776512 0.02241636 0 0 Z " fill="#112642" transform="translate(248.625,699.6875)"/>
<path d="M0 0 C28.14424897 9.48898302 52.92793215 27.27787966 68.63891602 52.74365234 C68.98647949 53.30020508 69.33404297 53.85675781 69.69213867 54.43017578 C87.41428288 83.05009176 92.51835564 117.93181268 84.96313477 150.77880859 C76.41121805 184.28312796 56.35036631 211.95842858 26.47143555 229.69580078 C15.77974311 235.80940909 4.5779175 239.82401134 -7.36108398 242.74365234 C-8.0280127 242.90881348 -8.69494141 243.07397461 -9.38208008 243.24414062 C-41.74606082 250.92036564 -75.91872215 243.86533501 -104.2331543 227.07177734 C-118.5665875 218.12571532 -133.80157777 205.09001835 -141.36108398 189.74365234 C-141.36108398 189.08365234 -141.36108398 188.42365234 -141.36108398 187.74365234 C-135.68826456 188.29527999 -131.14543941 189.90236993 -125.92358398 192.11865234 C-101.64790513 201.87211816 -74.46322919 201.42611405 -50.27905273 191.47021484 C-39.11401521 186.64585026 -29.39217784 180.99906942 -20.36108398 172.74365234 C-19.52061523 171.99599609 -18.68014648 171.24833984 -17.81420898 170.47802734 C-6.34378286 159.72005004 1.26313583 146.39798784 6.63891602 131.74365234 C6.89576172 131.08075195 7.15260742 130.41785156 7.41723633 129.73486328 C11.60954131 118.5464139 12.13355464 107.31757523 12.20141602 95.49365234 C12.21026825 94.77671204 12.21912048 94.05977173 12.22824097 93.32110596 C12.3160345 82.82880329 10.8512145 73.75216216 7.63891602 63.74365234 C7.39826416 62.97778809 7.1576123 62.21192383 6.90966797 61.42285156 C-2.91850593 32.00387673 -25.13014397 13.38343848 -51.36108398 -1.25634766 C-51.03108398 -2.24634766 -50.70108398 -3.23634766 -50.36108398 -4.25634766 C-37.23098392 -10.82139769 -13.26222749 -4.2538018 0 0 Z " fill="#ECCF89" transform="translate(912.361083984375,146.25634765625)"/>
<path d="M0 0 C0.99 0.33 1.98 0.66 3 1 C4.0703125 3.14453125 4.0703125 3.14453125 5.125 5.8125 C7.06658178 9.98839436 8.56373231 11.79075963 12.8125 13.625 C14.19672894 14.11727065 15.58971326 14.5882823 17 15 C17 15.99 17 16.98 17 18 C16.33613281 18.17273438 15.67226563 18.34546875 14.98828125 18.5234375 C10.79859055 19.85679892 7.83710531 20.82621278 5.22265625 24.4921875 C4.01496041 26.96358825 2.93737615 29.41481526 2 32 C1.01 31.67 0.02 31.34 -1 31 C-1.8515625 29.07421875 -1.8515625 29.07421875 -2.625 26.6875 C-3.82242695 23.72445528 -4.47986614 22.3226841 -7.22265625 20.62109375 C-8.81865645 19.97611744 -10.4366582 19.3822286 -12.07421875 18.8515625 C-12.70972656 18.57054687 -13.34523438 18.28953125 -14 18 C-14.33 17.01 -14.66 16.02 -15 15 C-14.32453125 14.82726562 -13.6490625 14.65453125 -12.953125 14.4765625 C-7.32788865 12.75464056 -7.32788865 12.75464056 -3.48046875 8.54296875 C-2.52833992 6.05031688 -1.74180927 3.56134142 -1 1 C-0.67 0.67 -0.34 0.34 0 0 Z " fill="#EAD392" transform="translate(392,204)"/>
<path d="M0 0 C0.66 0 1.32 0 2 0 C2.16113281 0.66386719 2.32226562 1.32773438 2.48828125 2.01171875 C3.83188201 6.37364537 4.79600111 9.21177051 8.71484375 11.77734375 C11.447623 12.99073994 14.15927541 14.06941781 17 15 C16.67 15.99 16.34 16.98 16 18 C13.8203125 18.59765625 13.8203125 18.59765625 11.125 19.0625 C8.3761699 19.67117001 8.3761699 19.67117001 6 21 C4.23170745 24.21413176 3.52862168 27.38775185 3 31 C1.68 31 0.36 31 -1 31 C-1.17273437 30.40832031 -1.34546875 29.81664062 -1.5234375 29.20703125 C-3.40416246 23.91857071 -5.1303215 21.44657756 -10.25 18.9375 C-11.82137068 18.26308224 -13.40141354 17.60709676 -15 17 C-15 16.34 -15 15.68 -15 15 C-14.33613281 14.75507813 -13.67226562 14.51015625 -12.98828125 14.2578125 C-6.30116091 11.42676885 -3.57323115 8.69883909 -0.7421875 2.01171875 C-0.49726562 1.34785156 -0.25234375 0.68398437 0 0 Z " fill="#E9D292" transform="translate(1129,162)"/>
<path d="M0 0 C0.99 0.33 1.98 0.66 3 1 C3.6328125 2.9609375 3.6328125 2.9609375 4.125 5.375 C5.01583107 8.43692756 5.38812399 9.64770775 8.19140625 11.26171875 C10.45483183 11.98785685 12.662541 12.573671 15 13 C15 13.99 15 14.98 15 16 C14.39671875 16.18433594 13.7934375 16.36867188 13.171875 16.55859375 C8.09310418 18.39264254 8.09310418 18.39264254 4.51171875 22.26953125 C3.5495641 24.49123381 2.70725656 26.68534217 2 29 C-0.6070358 26.71361566 -0.97726028 26.12734243 -1.625 22.5 C-2.5920988 18.91974122 -2.5920988 18.91974122 -5.125 17.87890625 C-7.40463945 17.13446149 -9.6566581 16.50627757 -12 16 C-12 15.01 -12 14.02 -12 13 C-11.38511719 12.89945312 -10.77023437 12.79890625 -10.13671875 12.6953125 C-7.44017753 12.06740976 -5.37721884 11.43729012 -3 10 C-1.31964963 6.77932846 -0.58290956 3.57115855 0 0 Z " fill="#EAD392" transform="translate(1098,396)"/>
<path d="M0 0 C3 1 3 1 4.1875 3.375 C5 6 5 6 5 9 C7.97 9.99 10.94 10.98 14 12 C14 13.32 14 14.64 14 16 C12.14375 16.4640625 12.14375 16.4640625 10.25 16.9375 C7.39227638 17.97114471 6.24478987 18.6207102 4.578125 21.203125 C3.60484144 23.44590886 2.74210701 25.67115103 2 28 C-1 26 -1 26 -2.1875 22.625 C-3.48300532 19.25246169 -4.96380083 18.14597195 -8.1875 16.5625 C-9.44893052 16.01928938 -10.71718367 15.49057822 -12 15 C-11 12 -11 12 -9.2578125 11.11328125 C-8.55398438 10.84902344 -7.85015625 10.58476562 -7.125 10.3125 C-4.5203599 9.12220748 -3.26842321 8.45702122 -1.8046875 5.96484375 C-0.88031557 3.52152835 -0.88031557 3.52152835 0 0 Z " fill="#EAD290" transform="translate(687,455)"/>
<path d="M0 0 C5.94162007 0.56624836 10.92821148 2.3206058 16.4375 4.5625 C17.26443359 4.89185547 18.09136719 5.22121094 18.94335938 5.56054688 C20.96498093 6.36685836 22.98288449 7.18248123 25 8 C21.34811918 9.07174763 18.73567172 8.76411467 15 8 C15 7.34 15 6.68 15 6 C14.01 6.33 13.02 6.66 12 7 C12 6.34 12 5.68 12 5 C11.01 5.33 10.02 5.66 9 6 C9.33 6.99 9.66 7.98 10 9 C9.67 9.99 9.34 10.98 9 12 C10.65 13.65 12.3 15.3 14 17 C13.67 17.66 13.34 18.32 13 19 C0 5.19444444 0 5.19444444 0 0 Z " fill="#EADA9B" transform="translate(771,334)"/>
<path d="M0 0 C2 3 2 3 1.8125 6.0625 C1 9 1 9 -2 11 C-5.32240324 10.6758631 -6.60776303 10.39223697 -9 8 C-9.375 5.0625 -9.375 5.0625 -9 2 C-6.14911792 -1.27323499 -4.00227856 -1.47452368 0 0 Z " fill="#E5D192" transform="translate(963,516)"/>
<path d="M0 0 C3 0.25 3 0.25 5 2.25 C5.3125 5.75 5.3125 5.75 5 9.25 C1.77856724 11.39762184 0.7404533 11.811068 -3 11.25 C-4.875 9.5625 -4.875 9.5625 -6 7.25 C-5.67747519 2.7346526 -4.81889451 0.40157454 0 0 Z " fill="#E6D89E" transform="translate(1223,294.75)"/>
<path d="M0 0 C1 1 1 1 1.25 4.4375 C1.1675 5.613125 1.085 6.78875 1 8 C-2.23253796 10.15502531 -3.25150923 10.46856135 -7 10 C-8.8125 8.8125 -8.8125 8.8125 -10 7 C-10.42674516 4.15503228 -10.36066991 2.63647631 -8.9375 0.125 C-5.85798867 -1.66310335 -3.35666727 -0.74592606 0 0 Z " fill="#E5D59A" transform="translate(539,135)"/>
<path d="M0 0 C1.875 1.0625 1.875 1.0625 3 3 C2.6875 6.6875 2.6875 6.6875 2 10 C-4.625 11.25 -4.625 11.25 -8 9 C-8.40373601 5.83740129 -8.54458662 3.85987361 -6.8125 1.125 C-4.34492892 -0.40659584 -2.85480169 -0.42822025 0 0 Z " fill="#E9D293" transform="translate(466,516)"/>
<path d="M0 0 C3 0.25 3 0.25 5 2.25 C5.333728 5.38704316 5.52849028 7.41554166 3.8125 10.125 C1.31963619 11.67229478 -0.11967335 11.75405716 -3 11.25 C-4.875 9.5625 -4.875 9.5625 -6 7.25 C-5.67747519 2.7346526 -4.81889451 0.40157454 0 0 Z " fill="#E6DAA7" transform="translate(531,362.75)"/>
<path d="M0 0 C1.875 1.0625 1.875 1.0625 3 3 C2.6875 6.6875 2.6875 6.6875 2 10 C-4.42548263 11.33359073 -4.42548263 11.33359073 -6.9375 9.875 C-8.36066991 7.36352369 -8.42674516 5.84496772 -8 3 C-5.85607122 -0.27231235 -3.76836426 -0.56525464 0 0 Z " fill="#EBD796" transform="translate(647,249)"/>
<path d="M0 0 C3.0625 0.3125 3.0625 0.3125 5 1.4375 C6.0625 3.3125 6.0625 3.3125 5.9375 6.375 C5.0625 9.3125 5.0625 9.3125 2.0625 11.3125 C-1.25990324 10.9883631 -2.54526303 10.70473697 -4.9375 8.3125 C-5.1875 5.3125 -5.1875 5.3125 -4.9375 2.3125 C-2.9375 0.3125 -2.9375 0.3125 0 0 Z " fill="#EAD696" transform="translate(352.9375,390.6875)"/>
<path d="M0 0 C3 1 3 1 4.1875 3.375 C5 6 5 6 5 9 C6.423125 9.433125 6.423125 9.433125 7.875 9.875 C11 11 11 11 13 13 C9.97580475 12.41196203 6.98241547 11.77321882 4 11 C4 10.01 4 9.02 4 8 C2.01508358 8.26676204 2.01508358 8.26676204 0 9 C-0.33 9.99 -0.66 10.98 -1 12 C-2.99609375 12.6953125 -2.99609375 12.6953125 -5.4375 13.125 C-8.8273078 13.73123617 -8.8273078 13.73123617 -12 15 C-11 12 -11 12 -9.2578125 11.11328125 C-8.55398438 10.84902344 -7.85015625 10.58476562 -7.125 10.3125 C-4.5203599 9.12220748 -3.26842321 8.45702122 -1.8046875 5.96484375 C-0.88031557 3.52152835 -0.88031557 3.52152835 0 0 Z " fill="#E8D79C" transform="translate(687,455)"/>
<path d="M0 0 C1.09957031 -0.01224609 2.19914063 -0.02449219 3.33203125 -0.03710938 C10.13296966 -0.04921069 16.39606495 0.54303818 23 2.1875 C19.78360346 3.93315111 17.67986596 4.391937 14 4.1875 C14 3.8575 14 3.5275 14 3.1875 C8.36473035 1.98265278 2.85463885 2.0745357 -2.875 2.125 C-4.33679688 2.13176758 -4.33679688 2.13176758 -5.828125 2.13867188 C-8.21881434 2.15039094 -10.6093744 2.16679781 -13 2.1875 C-13 2.8475 -13 3.5075 -13 4.1875 C-9.535 3.6925 -9.535 3.6925 -6 3.1875 C-6 4.5075 -6 5.8275 -6 7.1875 C-6.99 7.6825 -6.99 7.6825 -8 8.1875 C-10.4750171 7.07318235 -12.67883419 5.60599022 -15 4.1875 C-14.67 3.1975 -14.34 2.2075 -14 1.1875 C-9.88004827 -0.87247586 -4.52654136 0.0025807 0 0 Z " fill="#E7DFB3" transform="translate(876,140.8125)"/>
<path d="M0 0 C0.66 0 1.32 0 2 0 C1.67 1.98 1.34 3.96 1 6 C-2.32604951 7.10868317 -5.53058454 7.54177532 -9 8 C-8.79375 8.763125 -8.5875 9.52625 -8.375 10.3125 C-8 13 -8 13 -10 16 C-10.66 16 -11.32 16 -12 16 C-12 16.99 -12 17.98 -12 19 C-13.65 19 -15.3 19 -17 19 C-17 18.01 -17 17.02 -17 16 C-16.01 16.33 -15.02 16.66 -14 17 C-13.82726563 16.32453125 -13.65453125 15.6490625 -13.4765625 14.953125 C-11.20861946 7.75396637 -11.20861946 7.75396637 -7.5078125 5.4453125 C-5.02324683 4.48104764 -2.58108514 3.66004849 0 3 C0 2.01 0 1.02 0 0 Z " fill="#0F213C" transform="translate(1145,176)"/>
<path d="M0 0 C0.33 0.66 0.66 1.32 1 2 C0.03685937 4.01800895 -0.96958573 6.01549844 -2 8 C-2.69971973 9.98867713 -3.37664397 11.98608051 -4 14 C-4.66 14 -5.32 14 -6 14 C-6.0825 14.53625 -6.165 15.0725 -6.25 15.625 C-7.28354788 18.89790163 -8.90953611 21.29469379 -11 24 C-11.99 24 -12.98 24 -14 24 C-12.29854119 20.39536304 -10.23091909 17.06889084 -8.125 13.6875 C-5.32457373 9.17352176 -2.58911298 4.63882742 0 0 Z " fill="#112441" transform="translate(988,322)"/>
<path d="M0 0 C0.33 1.65 0.66 3.3 1 5 C0.34 4.67 -0.32 4.34 -1 4 C-1.99 4.495 -1.99 4.495 -3 5 C-2.34 5.66 -1.68 6.32 -1 7 C-2.66611905 7.042721 -4.33382885 7.04063832 -6 7 C-7 6 -7 6 -7.0625 2.9375 C-7.041875 1.968125 -7.02125 0.99875 -7 0 C-4.3333581 -1.33332095 -2.83319697 -0.67102033 0 0 Z " fill="#EBCC7F" transform="translate(534,365)"/>
<path d="M0 0 C3 1 3 1 4.25 3.375 C5 6 5 6 4 9 C4 8.34 4 7.68 4 7 C2.35 7 0.7 7 -1 7 C-1.33 8.32 -1.66 9.64 -2 11 C-2.66 10.67 -3.32 10.34 -4 10 C-2.68 6.7 -1.36 3.4 0 0 Z " fill="#ECDCA1" transform="translate(1098,396)"/>
<path d="M0 0 C1.32 0.33 2.64 0.66 4 1 C4.66 3.31 5.32 5.62 6 8 C3.50907189 9.24546405 2.58919267 8.7767578 0 8 C0 5.36 0 2.72 0 0 Z " fill="#E7CD85" transform="translate(1222,296)"/>
<path d="M0 0 C3.34373475 0.55728913 6.03312999 1.35173889 9 3 C6.29811996 4.80125336 4.06942297 6.00243753 1 7 C0.01 6.67 -0.98 6.34 -2 6 C-1.34 4.02 -0.68 2.04 0 0 Z " fill="#EDCF81" transform="translate(399,217)"/>
<path d="M0 0 C2.97 0.99 5.94 1.98 9 3 C9 3.99 9 4.98 9 6 C7.3125 6.6875 7.3125 6.6875 5 7 C2.25 5.8125 2.25 5.8125 0 4 C0 2.68 0 1.36 0 0 Z " fill="#EAD89B" transform="translate(1104,406)"/>
<path d="M0 0 C0 0.33 0 0.66 0 1 C-1.98 1 -3.96 1 -6 1 C-6 1.66 -6 2.32 -6 3 C-2.535 2.505 -2.535 2.505 1 2 C1 3.32 1 4.64 1 6 C0.01 6.495 0.01 6.495 -1 7 C-3.4750171 5.88568235 -5.67883419 4.41849022 -8 3 C-7.67 2.01 -7.34 1.02 -7 0 C-4.3333581 -1.33332095 -2.83319697 -0.67102033 0 0 Z " fill="#DED3A4" transform="translate(869,142)"/>
<path d="M0 0 C4.77235098 4.21089792 8.28419455 9.23146586 11 15 C10.67 15.66 10.34 16.32 10 17 C9.7525 16.21625 9.505 15.4325 9.25 14.625 C8.28928975 11.8795416 8.28928975 11.8795416 6.0625 11.125 C2.12396426 8.97670778 1.35212746 4.05638239 0 0 Z " fill="#16233B" transform="translate(902,177)"/>
<path d="M0 0 C0.845625 0.309375 1.69125 0.61875 2.5625 0.9375 C6.0497854 2.01538821 9.38177535 2.56581304 13 3 C12.67 3.99 12.34 4.98 12 6 C13.32 6.66 14.64 7.32 16 8 C11.85701333 7.40165275 8.81805623 5.99335715 5.1875 3.9375 C4.21167969 3.38964844 3.23585938 2.84179688 2.23046875 2.27734375 C1.49441406 1.85582031 0.75835938 1.43429687 0 1 C0 0.67 0 0.34 0 0 Z " fill="#F0E2A8" transform="translate(810,373)"/>
<path d="M0 0 C-1.32 0.33 -2.64 0.66 -4 1 C-4 1.66 -4 2.32 -4 3 C-2.35 3 -0.7 3 1 3 C1 3.66 1 4.32 1 5 C-3.3177458 4.49202991 -7.03302114 3.80317221 -11 2 C-11 1.67 -11 1.34 -11 1 C-7.27569643 0.30710631 -3.78916254 -0.11144596 0 0 Z " fill="#113161" transform="translate(798,336)"/>
<path d="M0 0 C4.12751449 0.60698743 7.3321148 2.03810791 11 4 C8.08235 5.9451 6.37462715 6.45276317 3 7 C3 6.34 3 5.68 3 5 C3.66 4.67 4.32 4.34 5 4 C3.35 2.68 1.7 1.36 0 0 Z " fill="#EECD7B" transform="translate(1133,174)"/>
<path d="M0 0 C0.66 0.33 1.32 0.66 2 1 C2 2.32 2 3.64 2 5 C3.0551021 6.74668165 3.0551021 6.74668165 4.5 8.25 C5.325 9.1575 6.15 10.065 7 11 C3.78475695 9.59155282 1.67816132 7.89655214 -0.75 5.375 C-1.36359375 4.74335938 -1.9771875 4.11171875 -2.609375 3.4609375 C-3.06828125 2.97882813 -3.5271875 2.49671875 -4 2 C-2.125 0.9375 -2.125 0.9375 0 0 Z " fill="#F0E1A1" transform="translate(789,352)"/>
<path d="M0 0 C0.99 0 1.98 0 3 0 C1.58036591 5.67853635 -1.39363961 9.53174216 -5 14 C-5 11 -5 11 -3.0625 8.125 C-1.13100817 5.19849723 -0.40230178 3.41956515 0 0 Z " fill="#15223A" transform="translate(909,293)"/>
<path d="M0 0 C0.33 0 0.66 0 1 0 C1 2.64 1 5.28 1 8 C0.01 8.33 -0.98 8.66 -2 9 C-2.33 9.66 -2.66 10.32 -3 11 C-2.53199289 6.94393835 -2.12046792 3.53411321 0 0 Z " fill="#E8D89B" transform="translate(922,271)"/>
<path d="M0 0 C3 3 3 3 3.07421875 6.13671875 C2.94660156 7.30847656 2.81898438 8.48023438 2.6875 9.6875 C2.50767578 11.45673828 2.50767578 11.45673828 2.32421875 13.26171875 C2.21722656 14.16535156 2.11023438 15.06898438 2 16 C1.67 16 1.34 16 1 16 C0.67 10.72 0.34 5.44 0 0 Z " fill="#081B3F" transform="translate(1000,252)"/>
<path d="M0 0 C0.99 0 1.98 0 3 0 C3.28875 0.78375 3.5775 1.5675 3.875 2.375 C4.84912254 5.09671632 4.84912254 5.09671632 7 7 C4.625 7.125 4.625 7.125 2 7 C0 5 0 5 -0.125 2.375 C-0.08375 1.59125 -0.0425 0.8075 0 0 Z " fill="#EACE83" transform="translate(531,137)"/>
<path d="M0 0 C4.875 1.75 4.875 1.75 6 4 C5.34 4 4.68 4 4 4 C4 4.66 4 5.32 4 6 C3.01 6 2.02 6 1 6 C1 5.34 1 4.68 1 4 C0.34 4 -0.32 4 -1 4 C-0.67 2.68 -0.34 1.36 0 0 Z " fill="#132947" transform="translate(871,151)"/>
<path d="M0 0 C0.78375 0.04125 1.5675 0.0825 2.375 0.125 C2.705 0.785 3.035 1.445 3.375 2.125 C1.725 2.125 0.075 2.125 -1.625 2.125 C-1.955 3.775 -2.285 5.425 -2.625 7.125 C-3.615 7.125 -4.605 7.125 -5.625 7.125 C-4.53409091 0.21590909 -4.53409091 0.21590909 0 0 Z " fill="#EEDE9E" transform="translate(463.625,515.875)"/>
<path d="M0 0 C0.66 0 1.32 0 2 0 C1.01 2.97 0.02 5.94 -1 9 C-3.5654594 6.4345406 -3.54046087 4.52313332 -4 1 C-3.67 1.66 -3.34 2.32 -3 3 C-2.01 3 -1.02 3 0 3 C0 2.01 0 1.02 0 0 Z " fill="#EDCE7E" transform="translate(1101,414)"/>
<path d="M0 0 C0.66 0 1.32 0 2 0 C2.99 2.31 3.98 4.62 5 7 C4.34 7.66 3.68 8.32 3 9 C0.9375 6.1875 0.9375 6.1875 -1 3 C-0.67 2.01 -0.34 1.02 0 0 Z " fill="#112849" transform="translate(977,190)"/>
<path d="M0 0 C3.3 0.33 6.6 0.66 10 1 C8 3 8 3 4.875 3.125 C3.92625 3.08375 2.9775 3.0425 2 3 C2 2.34 2 1.68 2 1 C1.34 0.67 0.68 0.34 0 0 Z " fill="#102443" transform="translate(850,390)"/>
</svg>
