<svg version="1.1" xmlns="http://www.w3.org/2000/svg" style="display: block;" viewBox="0 0 2048 2048" width="1024" height="1024" preserveAspectRatio="none">
<path transform="translate(0,0)" fill="rgb(32,131,183)" d="M 994.581 208.166 C 1016.3 206.976 1034.55 219.143 1051.34 231.637 C 1140.93 298.273 1216.81 393.846 1233.84 506.841 C 1240.24 539.063 1237.43 578.764 1242.03 610.177 C 1246.56 641.093 1268.44 686.829 1305.61 678.78 C 1336.74 672.042 1323.32 627.048 1338.46 606.242 C 1348.76 592.098 1368.91 596.94 1380.4 605.549 C 1404.12 625.357 1424.35 651.739 1445.81 673.959 C 1550.34 782.16 1628.73 914.014 1648.14 1065.13 C 1669.01 1212.04 1646.84 1366.13 1556.15 1487.7 C 1448.64 1631.83 1299.03 1694.83 1126.24 1720.81 C 984.837 1739.59 838.003 1723.32 708.399 1661.22 C 577.53 1598.51 466.889 1485.46 418.321 1348.08 C 337.325 1118.98 446.211 827.703 629.139 677.566 C 684.349 632.919 747.209 589.68 804.358 548.476 C 903.373 477.087 984.698 399.018 975.07 266.524 C 973.458 244.334 967.583 215.615 994.581 208.166 z"/>
<path transform="translate(0,0)" fill="rgb(56,193,233)" d="M 1014.73 254.029 C 1033.87 264.74 1067.87 299.25 1084.27 315.326 C 1128.81 358.991 1169.83 418.367 1184.3 479.621 C 1191.94 511.966 1195.39 547.66 1198.13 580.973 C 1200.79 613.264 1203.65 643.917 1221.53 672.382 C 1237.25 696.578 1268.51 715.748 1296.85 720.725 C 1348.88 729.86 1358.32 686.227 1364.7 648.997 C 1388.27 670.643 1407.84 693.92 1429.13 717.169 C 1524.01 820.779 1594.09 945.013 1610.33 1086.49 C 1624.7 1221.38 1602 1364.73 1515.57 1473.23 C 1450.85 1554.48 1366.8 1612.13 1269.49 1647.45 C 1213.17 1667.9 1158.49 1676.82 1099.24 1683.67 C 946.82 1696.93 795.933 1674.54 665.96 1590.34 C 632.865 1569.06 602.122 1544.34 574.248 1516.57 C 438.29 1379.14 407.648 1217.3 449.898 1033 C 494.664 837.73 613.25 737.207 766.714 622.373 C 793.088 602.625 819.597 583.057 846.238 563.672 C 873.436 543.8 900.424 524.396 924.475 501.154 C 979.104 448.363 1010.58 383.386 1014.75 307.423 C 1015.71 289.963 1014.57 271.781 1014.73 254.029 z"/>
<path transform="translate(0,0)" fill="rgb(25,52,79)" d="M 767.312 1109.34 C 781.754 1109.12 795.849 1113.77 807.316 1122.56 C 830.765 1140.21 843.192 1173.31 847.657 1201.36 C 853.498 1238.04 834.177 1278.44 802.723 1297.85 C 791.214 1304.95 780.59 1307.14 767.437 1308.94 C 690.909 1310.49 658.286 1199.39 704.036 1146.79 C 721.992 1126.15 739.701 1112.78 767.312 1109.34 z"/>
<path transform="translate(0,0)" fill="rgb(227,224,217)" d="M 752.823 1151.95 C 773.115 1150.16 785.293 1180.46 762.565 1190.42 C 735.129 1191.61 736.606 1166.11 752.823 1151.95 z"/>
<path transform="translate(0,0)" fill="rgb(25,52,79)" d="M 1269.41 1110.27 C 1319.54 1104.96 1351.67 1157.43 1359.43 1200.38 C 1364.24 1226.25 1358.4 1252.97 1343.22 1274.47 C 1329.92 1293.31 1312.79 1303.86 1290.25 1307.87 C 1242.27 1312.16 1205.12 1274.73 1196.66 1229.61 C 1191.22 1200.83 1197.61 1171.07 1214.37 1147.05 C 1227.92 1127.69 1246.06 1114.51 1269.41 1110.27 z"/>
<path transform="translate(0,0)" fill="rgb(227,224,217)" d="M 1263.02 1152.1 C 1284.53 1155.42 1291.61 1182.82 1271.63 1190.3 C 1254.02 1190.56 1244.41 1182.24 1251.98 1162.77 C 1254.04 1157.45 1257.91 1154.62 1263.02 1152.1 z"/>
<path transform="translate(0,0)" fill="rgb(25,52,79)" d="M 1104.07 1274.06 C 1140.57 1270.88 1124.42 1306.19 1108.32 1321.49 C 1070.77 1357.2 1007.33 1368.19 962.343 1340.33 C 952.02 1333.93 944.006 1326.27 935.531 1317.85 C 932.294 1314.47 929.269 1310.89 926.471 1307.13 C 917.752 1295.43 916.795 1285.09 931.635 1276.83 C 947.83 1267.81 959.019 1289.61 970.208 1299.23 C 978.912 1306.86 989.055 1312.67 1000.04 1316.32 C 1027.32 1325.32 1058.55 1319.22 1078.62 1298.15 C 1087.44 1288.88 1092.23 1279.68 1104.07 1274.06 z"/>
<path transform="translate(0,0)" fill="rgb(227,224,217)" d="M 956.397 1765.5 C 1043.41 1761.17 1300.01 1771.51 1373 1807.27 C 1377.38 1809.42 1381.36 1811.39 1382.97 1816.19 L 1381.73 1818.59 C 1376.11 1822.69 1348.97 1830.69 1341.48 1831.7 C 1288.16 1838.95 1234.04 1845.76 1180.44 1850.39 C 1152.25 1852.83 1123.5 1853.14 1095.25 1853.96 C 1046.76 1854.58 990.61 1855.76 942.132 1854.67 C 909.434 1853.94 675.524 1844.22 665.106 1817.44 C 665.239 1815.25 665.577 1813.85 667.077 1812.16 C 687.679 1789.02 840.895 1770.85 875.783 1768.21 C 902.596 1766.18 929.538 1766.38 956.397 1765.5 z"/>
</svg>



