<svg version="1.1" xmlns="http://www.w3.org/2000/svg" style="display: block;" viewBox="0 0 2048 2048" width="1024" height="1024" preserveAspectRatio="none">
<path transform="translate(0,0)" fill="rgb(39,125,174)" d="M 1005.12 199.2 C 1052.52 195.917 1112.29 257.884 1137.8 294.185 C 1149.13 310.303 1164.47 324.235 1174.92 340.964 C 1215.79 406.266 1239.3 478.083 1240.4 555.393 C 1241.05 600.764 1245.5 659.447 1297.27 673.457 C 1349.54 662.253 1309.11 609.867 1347.81 598.36 C 1355.3 596.132 1366.95 603.246 1373.03 608.502 C 1512.89 729.461 1621.6 897.421 1640.28 1084.44 C 1677.77 1432.54 1438 1661.6 1104.24 1694.52 C 1101.7 1695 1069.73 1696.66 1065.28 1696.92 C 954.991 1703.04 840.716 1685.12 738.308 1643.45 C 723.122 1637.28 709.322 1625.74 691.833 1621.89 C 685.6 1619.99 677.296 1612.06 671.929 1609.86 C 655.399 1603.09 644.103 1591.81 628.456 1583.86 L 628.099 1583.88 C 540.474 1533.59 466.311 1433.29 436.063 1337.5 C 352.482 1072.82 471.641 813.458 677.469 643.973 C 704.431 621.78 732.307 600.72 761.024 580.85 C 832.225 531.237 901.757 488.074 952.415 415.818 C 982.201 374.181 995.863 323.149 990.862 272.201 C 988.596 246.649 972.151 210.165 1005.12 199.2 z"/>
<path transform="translate(0,0)" fill="rgb(69,194,233)" d="M 1025.61 244.924 C 1053.86 255.658 1089.24 292.011 1108.4 315.624 C 1162.88 382.768 1197.18 456.824 1201.3 543.908 C 1203.19 583.818 1200.36 622.18 1220.88 659.462 C 1233.31 682.024 1261.1 706.094 1286.52 712.688 C 1328.14 723.487 1355.91 689.635 1364.78 654.711 C 1370.78 660.501 1377.24 665.969 1383.15 671.823 C 1398.49 686.594 1412.7 702.409 1427.02 718.19 C 1590.76 898.599 1667.88 1178.81 1539.71 1400.15 C 1469.63 1521.17 1341.42 1602.72 1206.96 1634.87 C 1164.82 1644.94 1124.43 1650.06 1080.9 1653.82 C 1043.1 1655.19 1009.29 1656.4 971.292 1653.88 C 744.819 1638.81 511.234 1516.57 461.615 1278.14 C 410.436 1032.22 535.024 802.694 728.247 656.577 C 747.512 641.984 766.303 626.983 786.329 613.272 C 865.519 559.05 940.129 508.831 992.802 426.45 C 1027.06 372.56 1038.83 307.395 1025.61 244.924 z"/>
<path transform="translate(0,0)" fill="rgb(28,59,86)" d="M 848.991 1085.16 C 859.573 1084.76 867.622 1091.13 865.992 1101.45 C 863.969 1114.26 839.152 1128.42 829.547 1134.8 C 873.27 1181.68 876.966 1261.35 813.878 1295.12 C 796.94 1304.18 778.695 1300.94 761.372 1294.42 C 743.515 1285.66 728.168 1266.16 721.676 1247.57 C 711.595 1218.71 715.524 1193.12 728.254 1166.08 C 720.914 1161.39 714.367 1155.25 717.53 1145.56 C 720.698 1135.85 734.212 1134.31 742.838 1132.65 C 770.217 1127.36 796.933 1119.4 820.592 1104.19 C 829.147 1098.8 840.706 1088.87 848.991 1085.16 z"/>
<path transform="translate(0,0)" fill="rgb(221,221,214)" d="M 779.104 1179.84 C 796.527 1179.95 797.737 1191.86 796.903 1205.94 C 793.095 1211.26 790.84 1213.4 785.106 1216.46 C 764.033 1216.14 760.067 1191.51 779.104 1179.84 z"/>
<path transform="translate(0,0)" fill="rgb(28,59,86)" d="M 1181.79 1084.98 C 1183.15 1084.81 1189.24 1084.4 1190.07 1084.82 C 1199.87 1089.83 1211.61 1099.59 1221.08 1105.29 C 1245.06 1119.9 1272.42 1128.45 1300.04 1132.87 C 1320.81 1136.19 1332.73 1152.11 1310.53 1165.51 C 1315.61 1179.46 1320.1 1189.99 1321.51 1204.99 C 1324.9 1241.09 1314.28 1267.67 1285.72 1289.38 C 1277.08 1295.53 1264.35 1299.1 1253.82 1299.83 C 1236.86 1301.05 1220.12 1295.31 1207.48 1283.93 C 1165.76 1246.74 1174.6 1173.29 1209.66 1134.37 C 1200.84 1128.65 1187.93 1121 1180.57 1113.85 C 1173.17 1106.66 1173.78 1101.84 1174.08 1092.66 C 1176.46 1089.67 1178.97 1087.56 1181.79 1084.98 z"/>
<path transform="translate(0,0)" fill="rgb(221,221,214)" d="M 1236.27 1177.98 C 1257.87 1177.97 1260.55 1204.43 1241.82 1214.66 C 1220.96 1214.44 1216.57 1188.9 1236.27 1177.98 z"/>
<path transform="translate(0,0)" fill="rgb(28,59,86)" d="M 1009.68 1271.47 C 1040.42 1269.75 1078.09 1282.51 1099.12 1305.45 C 1107.33 1314.42 1118.88 1329.65 1118.39 1342.24 C 1118.1 1349.49 1109.29 1356.42 1101.99 1355.17 C 1092.03 1353.11 1086.17 1337.81 1080.14 1330.38 C 1067.44 1314.72 1047.93 1306.46 1028.24 1304.3 C 951.713 1299.91 956.251 1351.32 937.033 1355.63 C 933.131 1356.51 929.278 1355.59 925.987 1353.39 C 922.464 1351.04 919.953 1347.42 919.324 1343.19 C 917.852 1333.28 927.417 1318.37 933.514 1310.94 C 953.366 1286.76 978.861 1274.62 1009.68 1271.47 z"/>
<path transform="translate(0,0)" fill="rgb(221,221,214)" d="M 840.068 1762.51 C 868.911 1759.61 899.071 1756.29 927.973 1754.42 C 951.442 1753.21 974.829 1755.07 998.31 1755.05 C 1055.59 1755.01 1113.66 1754.87 1170.77 1760.15 C 1204.82 1761.26 1344.9 1772.9 1364.94 1795.68 C 1367.19 1798.23 1367.17 1800.17 1366.95 1803.43 C 1358.98 1817.73 1298.76 1826.64 1282.22 1828.85 C 1248.47 1833.37 1214.42 1837.44 1180.49 1840.38 C 1061.4 1844.43 941.972 1845.78 823.036 1837.19 C 783.099 1834.31 742.324 1825.34 703.377 1816.12 C 695.912 1814.36 685.999 1810.11 681.644 1803.62 C 679.872 1791.53 704.781 1782.03 714.078 1779.63 C 716.836 1777.6 721.968 1773.66 725.079 1772.84 C 740.556 1768.77 760.312 1768.03 776.341 1766.94 L 838.897 1762.84 L 840.068 1762.51 z"/>
<path transform="translate(0,0)" fill="rgb(245,229,213)" d="M 840.068 1762.51 C 868.911 1759.61 899.071 1756.29 927.973 1754.42 C 951.442 1753.21 974.829 1755.07 998.31 1755.05 C 1055.59 1755.01 1113.66 1754.87 1170.77 1760.15 C 1168.71 1763.7 1148.86 1762.02 1143.47 1761.93 L 1071.38 1760.23 C 1013.33 1759 955.267 1759.83 897.282 1762.72 C 889.297 1763.19 845.468 1766.05 840.068 1762.51 z"/>
<path transform="translate(0,0)" fill="rgb(245,229,213)" d="M 714.078 1779.63 C 716.836 1777.6 721.968 1773.66 725.079 1772.84 C 740.556 1768.77 760.312 1768.03 776.341 1766.94 L 838.897 1762.84 C 835.599 1765.68 829.734 1766.26 825.439 1766.42 C 793.955 1767.61 762.802 1772.5 731.777 1777.72 C 727.379 1778.46 718.091 1780.41 714.078 1779.63 z"/>
</svg>





